<svg xmlns="http://www.w3.org/2000/svg" version="1.1" xmlns:xlink="http://www.w3.org/1999/xlink" xmlns:svgjs="http://svgjs.dev/svgjs" width="100%" height="100%" viewBox="0 0 1000 600"><rect width="1000" height="600" x="0" y="0" fill="#ffffff"/><g><circle r="166.66666666666666" cx="380.0824534098307" cy="402.304696137688" fill="#1d1b1b" transform="matrix(0.5857110883948965,0,0,0.5857110883948965,0,64.36568070228081)"/><path d="M427.72557634802274 440.5157859159191L380.0958817626407 477.3046936773606Q358.57530989927375 477.3046936773606 345.1853281538622 463.6195419936734L345.1853281538622 463.6195419936734Q332.4393535465064 450.60523107879436 332.4393535465064 430.13117081476815L332.4393535465064 430.13117081476815L332.4393535465064 364.09360553328924L380.0958817626407 327.3046977718477Q401.58961999525536 327.3046977718477 414.979601740667 340.9898494555349L414.979601740667 340.9898494555349Q427.72557634802274 354.00416037041396 427.72557634802274 374.47822063444016L427.72557634802274 374.47822063444016L409.80071100546775 382.95764795217576L408.8615339291363 382.95764795217576L408.8615339291363 374.47822063444016Q408.8615339291363 361.81274691934135 402.07262534879726 354.00416037041396L402.07262534879726 354.00416037041396Q393.6736989233187 344.2903860380713 380.0958817626407 344.2903860380713L380.0958817626407 344.2903860380713Q366.4107300789535 344.2903860380713 358.09230454573185 354.00416037041396L358.09230454573185 354.00416037041396Q351.30339596539295 361.81274691934135 351.30339596539295 374.47822063444016L351.30339596539295 374.47822063444016L351.30339596539295 430.13117081476815Q351.30339596539295 442.58197548384834 358.09230454573185 450.60523107879436L358.09230454573185 450.60523107879436Q366.30339555594423 460.3190054111371 380.0958817626407 460.3190054111371L380.0958817626407 460.3190054111371Q393.56636440030934 460.3190054111371 402.07262534879726 450.60523107879436L402.07262534879726 450.60523107879436Q408.8615339291363 442.7698108991146 408.8615339291363 430.13117081476815L408.8615339291363 430.13117081476815L426.78639927169127 421.62490986628023L427.72557634802274 421.62490986628023L427.72557634802274 440.5157859159191Z " fill="#ffffff" transform="matrix(0.5857110883948965,0,0,0.5857110883948965,0,64.36568070228081)"/><path d="M645.1629663236772 477.3046936773606L644.2237892473457 477.3046936773606L644.2237892473457 424.2814393107607L630.082465840869 424.2814393107607L630.082465840869 423.3422622344292L635.4491919913346 412.01847005694685L644.2237892473457 412.01847005694685L644.2237892473457 335.7841250895833L654.2327335179641 331.0614060771736L714.0448964649029 331.0614060771736L714.0448964649029 332.0274167842574L708.651336683685 343.32437533098744L663.0878316662322 343.32437533098744L663.0878316662322 412.01847005694685L707.4438232998302 412.01847005694685L707.4438232998302 412.95764713327833L702.0502635186124 424.2814393107607L663.0878316662322 424.2814393107607L663.0878316662322 468.7984327288727L645.1629663236772 477.3046936773606ZM773.9375603040987 462.3851949790663L773.9375603040987 462.3851949790663Q783.8391700517077 462.3851949790663 788.6692235871268 456.64279799806815L788.6692235871268 456.64279799806815Q794.2237851528587 449.93439030998616 794.2237851528587 439.92544603936784L794.2237851528587 439.92544603936784Q794.2237851528587 428.4406520773715 788.0788837105755 422.96659140389664L788.0788837105755 422.96659140389664Q782.2291522065681 417.76086703794505 773.9375603040987 417.76086703794505L773.9375603040987 417.76086703794505Q764.0359505564898 417.76086703794505 759.2327306518231 423.5300976496955L759.2327306518231 423.5300976496955Q753.6513354553389 430.2116717070252 753.6513354553389 439.92544603936784L753.6513354553389 439.92544603936784Q753.6513354553389 451.73224357039214 759.796236897622 457.206304243867L759.796236897622 457.206304243867Q765.7264692938863 462.3851949790663 773.9375603040987 462.3851949790663ZM794.2237851528587 461.5533524257441L773.9375603040987 477.3046936773606Q756.3883657920762 476.0703466627535 746.4867560444673 468.23492648307376L746.4867560444673 468.23492648307376Q734.7872930364524 459.004157504273 734.7872930364524 440.2206159776435L734.7872930364524 440.2206159776435L734.7872930364524 433.1365374590289L773.9375603040987 402.86820197040305Q785.8248587273799 403.70004452372524 794.2237851528587 407.59092098281275L794.2237851528587 407.59092098281275L794.2237851528587 403.05603738566936Q794.2237851528587 391.62491068517767 788.0788837105755 386.0703491194458L788.0788837105755 386.0703491194458Q782.2291522065681 380.8914583842465 773.9375603040987 380.8914583842465L773.9375603040987 380.8914583842465Q764.7067913252979 380.8914583842465 759.2327306518231 386.63385536524464L759.2327306518231 386.63385536524464L754.0270062858715 381.3476301070361L773.9375603040987 365.9719596859522Q791.7819247543969 367.2063067005593 801.3883645637302 375.041726880239L801.3883645637302 375.041726880239Q813.0878275717452 384.56766579731544 813.0878275717452 403.05603738566936L813.0878275717452 403.05603738566936L813.0878275717452 468.7984327288727L795.1629622291902 477.3046936773606L794.2237851528587 477.3046936773606L794.2237851528587 461.5533524257441ZM860.3418513265946 477.3046936773606L859.4026742502631 477.3046936773606L822.9894373193541 373.7000453426226L839.3042848167695 365.9719596859522L840.2702955238533 365.9719596859522L870.5386310124792 452.8592560619899L900.726465608848 365.9719596859522L901.6656426851795 365.9719596859522L911.3794170175222 370.5873441753526L876.6835324547621 469.54977438993785L860.3418513265946 477.3046936773606ZM931.6656418662822 477.3046936773606L930.7264647899506 477.3046936773606L930.7264647899506 374.47822063444016L948.6513301325056 365.9719596859522L949.5905072088372 365.9719596859522L949.5905072088372 468.7984327288727L931.6656418662822 477.3046936773606ZM948.6513301325056 327.3046977718477L949.5905072088372 327.3046977718477L949.5905072088372 348.79843600446236L931.6656418662822 357.3046969529503L930.7264647899506 357.3046969529503L930.7264647899506 335.7841250895833L948.6513301325056 327.3046977718477ZM1060.9232412002455 447.0095245579824L1021.7729739325991 477.3046936773606Q1003.9286094823011 476.0703466627535 994.3221696729677 468.23492648307376L994.3221696729677 468.23492648307376Q982.6227066649527 458.6284866737404 982.6227066649527 440.2206159776435L982.6227066649527 440.2206159776435L982.6227066649527 396.2671288053304L1021.7729739325991 365.9719596859522Q1039.5905047521449 367.2063067005593 1049.2237781922306 375.041726880239L1049.2237781922306 375.041726880239Q1060.9232412002455 384.56766579731544 1060.9232412002455 403.05603738566936L1060.9232412002455 403.05603738566936L1042.9983758576905 411.53546470340495L1042.059198781359 411.53546470340495L1042.059198781359 403.05603738566936Q1042.059198781359 391.62491068517767 1035.9142973390758 386.0703491194458L1035.9142973390758 386.0703491194458Q1030.0645658350684 380.8914583842465 1021.7729739325991 380.8914583842465L1021.7729739325991 380.8914583842465Q1012.515371323046 380.97195927650347 1007.0413106495712 386.63385536524464L1007.0413106495712 386.63385536524464Q1001.4867490838392 392.40308597699516 1001.4867490838392 403.05603738566936L1001.4867490838392 403.05603738566936L1001.4867490838392 440.2206159776435Q1001.4867490838392 451.6249090473828 1007.60481689537 457.206304243867L1007.60481689537 457.206304243867Q1013.4545483993775 462.3851949790663 1021.7729739325991 462.3851949790663L1021.7729739325991 462.3851949790663Q1031.0037429114 462.3046940868093 1036.477803584875 456.64279799806815L1036.477803584875 456.64279799806815Q1042.059198781359 450.87356738631763 1042.059198781359 440.2206159776435L1042.059198781359 440.2206159776435L1059.9572304931617 431.74118865990783L1060.9232412002455 431.74118865990783L1060.9232412002455 447.0095245579824ZM1167.5064225484919 447.0095245579824L1128.3561552808455 477.3046936773606Q1110.5386244612998 476.0703466627535 1100.905351021214 468.23492648307376L1100.905351021214 468.23492648307376Q1089.2058880131992 458.6284866737404 1089.2058880131992 440.2206159776435L1089.2058880131992 440.2206159776435L1089.2058880131992 396.2671288053304L1128.3561552808455 365.9719596859522Q1146.2005197311435 367.2063067005593 1155.8069595404768 375.041726880239L1155.8069595404768 375.041726880239Q1167.5064225484919 384.56766579731544 1167.5064225484919 403.05603738566936L1167.5064225484919 403.05603738566936L1167.5064225484919 447.0095245579824ZM1128.3561552808455 462.3851949790663L1128.3561552808455 462.3851949790663Q1137.318587952123 462.3851949790663 1142.9804840408642 456.64279799806815Q1148.6423801296055 450.87356738631763 1148.6423801296055 440.2206159776435L1148.6423801296055 440.2206159776435L1148.6423801296055 403.05603738566936Q1148.6423801296055 391.24923985464505 1142.47064505657 386.0703491194458Q1136.2989099835345 380.8914583842465 1128.3561552808455 380.8914583842465L1128.3561552808455 380.8914583842465Q1119.393722609568 380.8914583842465 1113.7318265208269 386.63385536524464Q1108.0699304320856 392.40308597699516 1108.0699304320856 403.05603738566936L1108.0699304320856 403.05603738566936L1108.0699304320856 440.2206159776435Q1108.0699304320856 452.0005798779154 1114.2148318743687 457.206304243867Q1120.3328996858995 462.3851949790663 1128.3561552808455 462.3851949790663ZM1196.7550800685294 477.3046936773606L1195.8159029921978 477.3046936773606L1195.8159029921978 396.2671288053304L1234.9661702598441 365.9719596859522Q1252.7837010793899 367.2063067005593 1262.4169745194756 375.041726880239L1262.4169745194756 375.041726880239Q1274.1164375274907 384.56766579731544 1274.1164375274907 403.05603738566936L1274.1164375274907 403.05603738566936L1274.1164375274907 468.7984327288727L1256.1915721849355 477.3046936773606L1255.252395108604 477.3046936773606L1255.252395108604 403.05603738566936Q1255.252395108604 391.24923985464505 1249.1074936663208 386.0703491194458Q1242.9894258547902 380.8914583842465 1234.9661702598441 380.8914583842465L1234.9661702598441 380.8914583842465Q1226.111072111576 380.8914583842465 1220.2613406075684 386.63385536524464L1220.2613406075684 386.63385536524464Q1214.6799454110842 392.10791603871957 1214.6799454110842 403.05603738566936L1214.6799454110842 403.05603738566936L1214.6799454110842 468.7984327288727L1196.7550800685294 477.3046936773606ZM1308.0878140599377 477.3046936773606L1307.121803352854 477.3046936773606L1307.121803352854 455.78412181399364L1325.046668695409 447.30469449625804L1326.0126794024927 447.30469449625804L1326.0126794024927 468.7984327288727L1308.0878140599377 477.3046936773606ZM1364.6799413165973 477.3046936773606L1363.740764240266 477.3046936773606L1363.740764240266 374.47822063444016L1381.6656295828207 365.9719596859522L1382.6048066591522 365.9719596859522L1382.6048066591522 468.7984327288727L1364.6799413165973 477.3046936773606ZM1381.6656295828207 327.3046977718477L1382.6048066591522 327.3046977718477L1382.6048066591522 348.79843600446236L1364.6799413165973 357.3046969529503L1363.740764240266 357.3046969529503L1363.740764240266 335.7841250895833L1381.6656295828207 327.3046977718477ZM1493.9107070198083 447.0095245579824L1454.7604397521618 477.3046936773606Q1436.9429089326163 476.0703466627535 1427.3096354925306 468.23492648307376L1427.3096354925306 468.23492648307376Q1415.6101724845155 458.6284866737404 1415.6101724845155 440.2206159776435L1415.6101724845155 440.2206159776435L1415.6101724845155 396.2671288053304L1454.7604397521618 365.9719596859522Q1472.60480420246 367.2063067005593 1482.2112440117935 375.041726880239L1482.2112440117935 375.041726880239Q1493.9107070198083 384.56766579731544 1493.9107070198083 403.05603738566936L1493.9107070198083 403.05603738566936L1493.9107070198083 447.0095245579824ZM1454.7604397521618 462.3851949790663L1454.7604397521618 462.3851949790663Q1463.7228724234394 462.3851949790663 1469.3847685121807 456.64279799806815Q1475.0466646009218 450.87356738631763 1475.0466646009218 440.2206159776435L1475.0466646009218 440.2206159776435L1475.0466646009218 403.05603738566936Q1475.0466646009218 391.24923985464505 1468.8749295278863 386.0703491194458Q1462.7031944548512 380.8914583842465 1454.7604397521618 380.8914583842465L1454.7604397521618 380.8914583842465Q1445.7980070808844 380.8914583842465 1440.1361109921431 386.63385536524464Q1434.5010485341545 392.40308597699516 1434.5010485341545 403.05603738566936L1434.5010485341545 403.05603738566936L1434.5010485341545 440.2206159776435Q1434.5010485341545 452.0005798779154 1440.6191163456851 457.206304243867Q1446.7640177879682 462.3851949790663 1454.7604397521618 462.3851949790663Z " fill="#ffffff" transform="matrix(0.5857110883948965,0,0,0.5857110883948965,0,64.36568070228081)"/></g></svg>